<mxfile host="app.diagrams.net" modified="2022-02-22T21:09:37.326Z" agent="5.0 (Windows NT 10.0; Win64; x64) AppleWebKit/537.36 (KHTML, like Gecko) Chrome/98.0.4758.102 Safari/537.36" etag="78_EX5VNkInC2KAde3bx" version="15.8.6" type="github">
  <diagram id="C5RBs43oDa-KdzZeNtuy" name="Page-1">
    <mxGraphModel dx="1600" dy="914" grid="1" gridSize="10" guides="1" tooltips="1" connect="1" arrows="1" fold="1" page="1" pageScale="1" pageWidth="827" pageHeight="1169" math="0" shadow="0">
      <root>
        <mxCell id="WIyWlLk6GJQsqaUBKTNV-0" />
        <mxCell id="WIyWlLk6GJQsqaUBKTNV-1" parent="WIyWlLk6GJQsqaUBKTNV-0" />
        <mxCell id="g26CrnB-vdUfIIskvU_F-3" value="" style="edgeStyle=orthogonalEdgeStyle;rounded=0;orthogonalLoop=1;jettySize=auto;html=1;" edge="1" parent="WIyWlLk6GJQsqaUBKTNV-1" source="g26CrnB-vdUfIIskvU_F-0" target="g26CrnB-vdUfIIskvU_F-1">
          <mxGeometry relative="1" as="geometry" />
        </mxCell>
        <mxCell id="g26CrnB-vdUfIIskvU_F-0" value="Начало" style="ellipse;whiteSpace=wrap;html=1;" vertex="1" parent="WIyWlLk6GJQsqaUBKTNV-1">
          <mxGeometry x="354" y="50" width="120" height="80" as="geometry" />
        </mxCell>
        <mxCell id="g26CrnB-vdUfIIskvU_F-4" value="" style="edgeStyle=orthogonalEdgeStyle;rounded=0;orthogonalLoop=1;jettySize=auto;html=1;" edge="1" parent="WIyWlLk6GJQsqaUBKTNV-1" source="g26CrnB-vdUfIIskvU_F-1" target="g26CrnB-vdUfIIskvU_F-2">
          <mxGeometry relative="1" as="geometry" />
        </mxCell>
        <mxCell id="g26CrnB-vdUfIIskvU_F-1" value="Вводим информацию о товаре" style="shape=parallelogram;perimeter=parallelogramPerimeter;whiteSpace=wrap;html=1;fixedSize=1;" vertex="1" parent="WIyWlLk6GJQsqaUBKTNV-1">
          <mxGeometry x="354" y="160" width="120" height="60" as="geometry" />
        </mxCell>
        <mxCell id="g26CrnB-vdUfIIskvU_F-6" value="" style="edgeStyle=orthogonalEdgeStyle;rounded=0;orthogonalLoop=1;jettySize=auto;html=1;" edge="1" parent="WIyWlLk6GJQsqaUBKTNV-1" source="g26CrnB-vdUfIIskvU_F-2" target="g26CrnB-vdUfIIskvU_F-5">
          <mxGeometry relative="1" as="geometry" />
        </mxCell>
        <mxCell id="g26CrnB-vdUfIIskvU_F-9" value="" style="edgeStyle=orthogonalEdgeStyle;rounded=0;orthogonalLoop=1;jettySize=auto;html=1;" edge="1" parent="WIyWlLk6GJQsqaUBKTNV-1" source="g26CrnB-vdUfIIskvU_F-2" target="g26CrnB-vdUfIIskvU_F-8">
          <mxGeometry relative="1" as="geometry" />
        </mxCell>
        <mxCell id="g26CrnB-vdUfIIskvU_F-2" value="Товар существует?&lt;br&gt;" style="rhombus;whiteSpace=wrap;html=1;" vertex="1" parent="WIyWlLk6GJQsqaUBKTNV-1">
          <mxGeometry x="362" y="260" width="104" height="104" as="geometry" />
        </mxCell>
        <mxCell id="g26CrnB-vdUfIIskvU_F-11" value="" style="edgeStyle=orthogonalEdgeStyle;rounded=0;orthogonalLoop=1;jettySize=auto;html=1;" edge="1" parent="WIyWlLk6GJQsqaUBKTNV-1" source="g26CrnB-vdUfIIskvU_F-5" target="g26CrnB-vdUfIIskvU_F-10">
          <mxGeometry relative="1" as="geometry">
            <Array as="points">
              <mxPoint x="70" y="432" />
              <mxPoint x="70" y="980" />
              <mxPoint x="422" y="980" />
            </Array>
          </mxGeometry>
        </mxCell>
        <mxCell id="g26CrnB-vdUfIIskvU_F-15" value="" style="edgeStyle=orthogonalEdgeStyle;rounded=0;orthogonalLoop=1;jettySize=auto;html=1;" edge="1" parent="WIyWlLk6GJQsqaUBKTNV-1" source="g26CrnB-vdUfIIskvU_F-5" target="g26CrnB-vdUfIIskvU_F-14">
          <mxGeometry relative="1" as="geometry" />
        </mxCell>
        <mxCell id="g26CrnB-vdUfIIskvU_F-5" value="Товар можно заказать?" style="rhombus;whiteSpace=wrap;html=1;" vertex="1" parent="WIyWlLk6GJQsqaUBKTNV-1">
          <mxGeometry x="150" y="380" width="104" height="104" as="geometry" />
        </mxCell>
        <mxCell id="g26CrnB-vdUfIIskvU_F-7" value="Нет" style="text;html=1;align=center;verticalAlign=middle;resizable=0;points=[];autosize=1;strokeColor=none;fillColor=none;" vertex="1" parent="WIyWlLk6GJQsqaUBKTNV-1">
          <mxGeometry x="270" y="280" width="40" height="20" as="geometry" />
        </mxCell>
        <mxCell id="g26CrnB-vdUfIIskvU_F-25" style="edgeStyle=orthogonalEdgeStyle;rounded=0;orthogonalLoop=1;jettySize=auto;html=1;exitX=0;exitY=0.5;exitDx=0;exitDy=0;entryX=0.5;entryY=0;entryDx=0;entryDy=0;" edge="1" parent="WIyWlLk6GJQsqaUBKTNV-1" source="g26CrnB-vdUfIIskvU_F-8" target="g26CrnB-vdUfIIskvU_F-24">
          <mxGeometry relative="1" as="geometry" />
        </mxCell>
        <mxCell id="g26CrnB-vdUfIIskvU_F-33" style="edgeStyle=orthogonalEdgeStyle;rounded=0;orthogonalLoop=1;jettySize=auto;html=1;" edge="1" parent="WIyWlLk6GJQsqaUBKTNV-1" source="g26CrnB-vdUfIIskvU_F-8">
          <mxGeometry relative="1" as="geometry">
            <mxPoint x="740" y="690" as="targetPoint" />
          </mxGeometry>
        </mxCell>
        <mxCell id="g26CrnB-vdUfIIskvU_F-8" value="Товар в наличии?" style="rhombus;whiteSpace=wrap;html=1;" vertex="1" parent="WIyWlLk6GJQsqaUBKTNV-1">
          <mxGeometry x="580" y="380" width="80" height="80" as="geometry" />
        </mxCell>
        <mxCell id="g26CrnB-vdUfIIskvU_F-10" value="Конец" style="ellipse;whiteSpace=wrap;html=1;" vertex="1" parent="WIyWlLk6GJQsqaUBKTNV-1">
          <mxGeometry x="362" y="1030" width="120" height="60" as="geometry" />
        </mxCell>
        <mxCell id="g26CrnB-vdUfIIskvU_F-12" value="Нет" style="text;html=1;align=center;verticalAlign=middle;resizable=0;points=[];autosize=1;strokeColor=none;fillColor=none;" vertex="1" parent="WIyWlLk6GJQsqaUBKTNV-1">
          <mxGeometry x="100" y="400" width="40" height="20" as="geometry" />
        </mxCell>
        <mxCell id="g26CrnB-vdUfIIskvU_F-13" value="Нет" style="text;html=1;align=center;verticalAlign=middle;resizable=0;points=[];autosize=1;strokeColor=none;fillColor=none;" vertex="1" parent="WIyWlLk6GJQsqaUBKTNV-1">
          <mxGeometry x="540" y="380" width="40" height="20" as="geometry" />
        </mxCell>
        <mxCell id="g26CrnB-vdUfIIskvU_F-17" value="" style="edgeStyle=orthogonalEdgeStyle;rounded=0;orthogonalLoop=1;jettySize=auto;html=1;" edge="1" parent="WIyWlLk6GJQsqaUBKTNV-1" source="g26CrnB-vdUfIIskvU_F-14" target="g26CrnB-vdUfIIskvU_F-16">
          <mxGeometry relative="1" as="geometry" />
        </mxCell>
        <mxCell id="g26CrnB-vdUfIIskvU_F-14" value="Сбор требований от клиента" style="whiteSpace=wrap;html=1;" vertex="1" parent="WIyWlLk6GJQsqaUBKTNV-1">
          <mxGeometry x="294" y="520" width="120" height="60" as="geometry" />
        </mxCell>
        <mxCell id="g26CrnB-vdUfIIskvU_F-19" value="" style="edgeStyle=orthogonalEdgeStyle;rounded=0;orthogonalLoop=1;jettySize=auto;html=1;" edge="1" parent="WIyWlLk6GJQsqaUBKTNV-1" source="g26CrnB-vdUfIIskvU_F-16" target="g26CrnB-vdUfIIskvU_F-18">
          <mxGeometry relative="1" as="geometry" />
        </mxCell>
        <mxCell id="g26CrnB-vdUfIIskvU_F-16" value="Заказ товара у поставщика и добавление в базу" style="whiteSpace=wrap;html=1;" vertex="1" parent="WIyWlLk6GJQsqaUBKTNV-1">
          <mxGeometry x="294" y="660" width="120" height="60" as="geometry" />
        </mxCell>
        <mxCell id="g26CrnB-vdUfIIskvU_F-18" value="БД Товаров" style="shape=cylinder3;whiteSpace=wrap;html=1;boundedLbl=1;backgroundOutline=1;size=15;" vertex="1" parent="WIyWlLk6GJQsqaUBKTNV-1">
          <mxGeometry x="324" y="760" width="60" height="80" as="geometry" />
        </mxCell>
        <mxCell id="g26CrnB-vdUfIIskvU_F-20" value="Да" style="text;html=1;align=center;verticalAlign=middle;resizable=0;points=[];autosize=1;strokeColor=none;fillColor=none;" vertex="1" parent="WIyWlLk6GJQsqaUBKTNV-1">
          <mxGeometry x="455" y="260" width="30" height="20" as="geometry" />
        </mxCell>
        <mxCell id="g26CrnB-vdUfIIskvU_F-21" value="Да" style="text;html=1;align=center;verticalAlign=middle;resizable=0;points=[];autosize=1;strokeColor=none;fillColor=none;" vertex="1" parent="WIyWlLk6GJQsqaUBKTNV-1">
          <mxGeometry x="254" y="400" width="30" height="20" as="geometry" />
        </mxCell>
        <mxCell id="g26CrnB-vdUfIIskvU_F-22" value="Да" style="text;html=1;align=center;verticalAlign=middle;resizable=0;points=[];autosize=1;strokeColor=none;fillColor=none;" vertex="1" parent="WIyWlLk6GJQsqaUBKTNV-1">
          <mxGeometry x="660" y="380" width="30" height="20" as="geometry" />
        </mxCell>
        <mxCell id="g26CrnB-vdUfIIskvU_F-27" value="" style="edgeStyle=orthogonalEdgeStyle;rounded=0;orthogonalLoop=1;jettySize=auto;html=1;" edge="1" parent="WIyWlLk6GJQsqaUBKTNV-1" source="g26CrnB-vdUfIIskvU_F-24" target="g26CrnB-vdUfIIskvU_F-26">
          <mxGeometry relative="1" as="geometry" />
        </mxCell>
        <mxCell id="g26CrnB-vdUfIIskvU_F-24" value="Заказ товара у поставщика" style="whiteSpace=wrap;html=1;" vertex="1" parent="WIyWlLk6GJQsqaUBKTNV-1">
          <mxGeometry x="474" y="460" width="120" height="60" as="geometry" />
        </mxCell>
        <mxCell id="g26CrnB-vdUfIIskvU_F-28" value="" style="edgeStyle=orthogonalEdgeStyle;rounded=0;orthogonalLoop=1;jettySize=auto;html=1;entryX=0.5;entryY=0;entryDx=0;entryDy=0;" edge="1" parent="WIyWlLk6GJQsqaUBKTNV-1" source="g26CrnB-vdUfIIskvU_F-26" target="g26CrnB-vdUfIIskvU_F-10">
          <mxGeometry relative="1" as="geometry" />
        </mxCell>
        <mxCell id="g26CrnB-vdUfIIskvU_F-32" style="edgeStyle=orthogonalEdgeStyle;rounded=0;orthogonalLoop=1;jettySize=auto;html=1;" edge="1" parent="WIyWlLk6GJQsqaUBKTNV-1" source="g26CrnB-vdUfIIskvU_F-26" target="g26CrnB-vdUfIIskvU_F-31">
          <mxGeometry relative="1" as="geometry" />
        </mxCell>
        <mxCell id="g26CrnB-vdUfIIskvU_F-26" value="Клиент готов ждать?" style="rhombus;whiteSpace=wrap;html=1;" vertex="1" parent="WIyWlLk6GJQsqaUBKTNV-1">
          <mxGeometry x="494" y="590" width="80" height="80" as="geometry" />
        </mxCell>
        <mxCell id="g26CrnB-vdUfIIskvU_F-29" value="Нет" style="text;html=1;align=center;verticalAlign=middle;resizable=0;points=[];autosize=1;strokeColor=none;fillColor=none;" vertex="1" parent="WIyWlLk6GJQsqaUBKTNV-1">
          <mxGeometry x="454" y="600" width="40" height="20" as="geometry" />
        </mxCell>
        <mxCell id="g26CrnB-vdUfIIskvU_F-30" value="Да" style="text;html=1;align=center;verticalAlign=middle;resizable=0;points=[];autosize=1;strokeColor=none;fillColor=none;" vertex="1" parent="WIyWlLk6GJQsqaUBKTNV-1">
          <mxGeometry x="574" y="600" width="30" height="20" as="geometry" />
        </mxCell>
        <mxCell id="g26CrnB-vdUfIIskvU_F-35" value="" style="edgeStyle=orthogonalEdgeStyle;rounded=0;orthogonalLoop=1;jettySize=auto;html=1;" edge="1" parent="WIyWlLk6GJQsqaUBKTNV-1" source="g26CrnB-vdUfIIskvU_F-31" target="g26CrnB-vdUfIIskvU_F-34">
          <mxGeometry relative="1" as="geometry" />
        </mxCell>
        <mxCell id="g26CrnB-vdUfIIskvU_F-31" value="Проводим продажу&amp;nbsp;" style="shape=process;whiteSpace=wrap;html=1;backgroundOutline=1;" vertex="1" parent="WIyWlLk6GJQsqaUBKTNV-1">
          <mxGeometry x="680" y="690" width="120" height="60" as="geometry" />
        </mxCell>
        <mxCell id="g26CrnB-vdUfIIskvU_F-34" value="Выдаем чек" style="shape=document;whiteSpace=wrap;html=1;boundedLbl=1;" vertex="1" parent="WIyWlLk6GJQsqaUBKTNV-1">
          <mxGeometry x="680" y="830" width="120" height="80" as="geometry" />
        </mxCell>
      </root>
    </mxGraphModel>
  </diagram>
</mxfile>
